<?xml version="1.0" encoding="utf-8"?>
<!-- Generator: Adobe Illustrator 23.0.0, SVG Export Plug-In . SVG Version: 6.00 Build 0)  -->
<svg version="1.1" id="레이어_1" xmlns="http://www.w3.org/2000/svg" xmlns:xlink="http://www.w3.org/1999/xlink" x="0px"
	 y="0px" viewBox="0 0 153.38 305.45" style="enable-background:new 0 0 153.38 305.45;" xml:space="preserve">
<g>
	<path d="M125.19,118.96c4.16,3.46,2.86,7.87,0.23,10.66c-3.48,3.71-3.38,7.6-2.85,11.73c2.5,19.62,2.21,39.22-0.49,58.77
		c-0.63,4.58-1.85,9.44-4.2,13.32c-2.36,3.9-6.46,6.73-9.8,10.04c-0.75-0.4-1.5-0.81-2.25-1.21c0.74,6.85,1.71,13.68,2.15,20.55
		c0.46,7.13,0.71,14.31,0.47,21.45c-0.25,7.56-4.88,12.73-10.77,16.9c-1.99,1.41-4.01,2.77-7.05,4.86
		c4.38,1.51,7.94,2.51,11.28,3.99c1.78,0.79,4.41,2.37,4.48,3.69c0.1,2.01-1.2,5.21-2.81,5.96c-3.93,1.83-8.38,2.55-12.61,3.72
		c3.38-1.24,7.06-2.01,10.02-3.9c1.79-1.14,2.46-4.04,3.64-6.14c-2.16-0.46-4.98-2.03-6.38-1.2c-8.57,5.09-16.82,4.33-25.78-1.12
		c1.06,7.95,6.95,8.18,11.68,9.88c2.18,0.78,4.32,1.66,6.48,2.49c-2.21-0.34-4.4-0.8-6.62-1c-7.63-0.7-13.13-3.99-14.66-11.85
		c-3.56,0-6.81,0-10.07,0c-0.18,0.48-0.36,0.97-0.55,1.45c1.77,0.75,3.79,1.19,5.24,2.33c1.76,1.39,3.74,3.21,4.23,5.19
		c0.24,0.97-2.45,3.44-4.21,4.01c-12.53,4.06-24.39,1.51-35.24-5.17c-2.04-1.26-2.12-5.69-3.54-9.96
		c-9.63-0.19-6.51-9.66-7.53-16.08c-0.88-5.55-1.6-9.76-7.43-12.76c-7.27-3.74-10.82-11.14-10.18-19.16
		c1.02-12.87,2.07-25.94,5.16-38.41c4.64-18.72,8.16-37.4,9.86-56.67c1.16-13.13,7.63-24.77,20.57-31.1
		c8.39-4.1,9.89-19.59,2.78-25.51c-1.86-1.55-2.36-4.74-4.03-8.33c-0.39-0.09-2.21-0.53-4.04-0.96c-0.04-0.38-0.09-0.76-0.13-1.14
		c2.65-0.52,5.3-1.04,8.29-1.62c0.15-2.08,0.24-4.05,0.44-6.01c0.83-7.97,4.52-11.77,12.24-12.65c6.92-0.78,10.26,1.76,13.41,9.35
		c0.6,1.44,3.01,2.97,4.6,2.98c2.74,0.02,5.49-1.11,8.68-0.25c-3.76,1.24-7.52,2.47-11.65,3.83c3.75,2.4,4.76,4.37,2.86,9.81
		c-2.62,7.49-6.56,16.4-0.36,24.64c0.67,0.89,1.08,1.98,1.79,2.81c6.16,7.18,31.68,18.51,41.56,18.48
		c3.68-7.03,3.82-13.96,1.19-21.65c-3.98-11.63-6.66-23.71-10.38-35.44c-1.12-3.54-3.86-6.57-5.87-9.84
		c0.73-1.89,2.53-4.16,2.01-5.59c-1.55-4.3-12.95-6.74-17.11-4.07c5.11,3.29,10.21,6.58,15.3,9.87c-5.77-2.84-11.38-6.08-17.35-8.37
		c-3.98-1.53-8.46-2.33-12.73-2.36c-9.61-0.08-19.23,0.58-28.85,0.79c-1.91,0.04-3.83-0.58-7.76-1.22
		c4.28-7.7,7.97-14.33,11.67-20.96c11.11,1.67,13.22,0.16,17.49-14.18c-3.07,1.66-5.08,2.32-6.52,3.61c-3.8,3.38-7.35,7.04-11,10.58
		c8-13.62,20.36-21.45,34.9-26.5c2.37-0.82,4.4-2.62,7.09-4.27c0.34,0.22,1.61,1.15,2.99,1.86c0.53,0.27,1.33,0.08,1.99,0.03
		c11.79-1.01,22.9-0.08,31.96,9.07c3.08,3.11,6.9,3.18,9.52-2.3c-5.37-1.62-10.62-3.2-15.87-4.79c14.85,1.29,28.09,6.07,38.6,17.49
		c-8.17,10.59-19.54,15.75-31.19,20.4c-11.46,4.57-19.82,21.26-16.44,32.91c3.04,10.5,5.96,21.05,8.69,31.64
		c1.59,6.17,2.9,12.32,10.96,12.85c-7.99-0.34-11.08,3.55-10.48,13.19C123.98,130.62,125.53,128.61,125.19,118.96z M119.83,133.4
		c-3.42,2.62-6.98,3.9-7.64,6.07c-8.03,26.22-8.37,52.53,0.75,78.81C126.15,191.5,121.3,163.26,119.83,133.4z M44.24,248.78
		c11.9-21.16,18.74-43.54,16.29-68.09c-0.18-1.76-2.61-3.29-4.8-5.89C43.39,199.28,43.92,224.03,44.24,248.78z M41.77,85.32
		c1.55,3.84,2.23,8.51,4.89,11.27c2.56,2.65,7.3,4.71,10.83,4.38c2.66-0.25,5.96-4.31,7.07-7.37c1.17-3.22,0.35-7.28-0.06-10.93
		c-0.92-8.19-4.48-9.97-11.51-6.05c-1.3,0.73-3.07,2.15-4,1.77C40.92,75.05,43.22,81.25,41.77,85.32z M29.85,291.36
		c-0.56,0.41-1.13,0.81-1.69,1.22c0.72,1.45,1.06,3.62,2.22,4.23c10.02,5.26,20.42,9.1,31.91,5.33c1.54-0.5,2.62-2.41,3.91-3.67
		c-1.38-0.96-2.64-2.25-4.16-2.79c-1.4-0.49-3.16-0.48-4.62-0.12C47.67,297.97,38.51,296.57,29.85,291.36z M74.88,166.2
		c-0.62-0.66-1.23-1.33-1.85-1.99c-4.79,1.35-9.7,2.38-14.32,4.16c-3.45,1.33-3.43,4.91-0.31,5.74c3.73,0.99,8.34,0.71,11.96-0.64
		C72.47,172.68,73.41,168.73,74.88,166.2z M31.62,288.11c5.26,7.46,21.41,8.72,24.32,2.67C48.1,289.92,40.22,289.05,31.62,288.11z
		 M76.75,289.34c7.36,6.02,11.33,6.16,17.97,1.51C89.74,282.94,83.52,288.7,76.75,289.34z M103.39,61.42
		c3-5.25,5.77-10.1,8.82-15.43C102.54,46.45,99.07,52.7,103.39,61.42z M65.67,20.02c-4.18,0.03-4.18,0.03-8.72,11.22
		C63.86,31.8,64.73,30.68,65.67,20.02z M105.01,10.74c4.07,10.05,5.12,10.7,10.17,7.32C111.7,15.56,108.35,13.15,105.01,10.74z
		 M101.6,24.42c-2.32-3.39-4.06-5.94-5.79-8.49c-0.63,0.21-1.26,0.41-1.89,0.62c0.16,2.98,0.32,5.97,0.51,9.58
		C96.98,25.53,98.79,25.09,101.6,24.42z M80.11,29.85c6.73-0.12,4.15-4.77,4.52-7.63c0.11-0.84-1.14-1.85-1.77-2.78
		c-0.74,0.84-1.95,1.59-2.13,2.53C80.28,24.29,80.31,26.72,80.11,29.85z M100.71,13.49c1.05,8.89,2.48,10.21,7.63,8.04
		C105.68,18.72,103.19,16.1,100.71,13.49z"/>
</g>
</svg>
